<svg width="43" height="42" viewBox="0 0 43 42" fill="none" xmlns="http://www.w3.org/2000/svg">
<path d="M33.75 5.25C34.6783 5.25 35.5685 5.61875 36.2249 6.27513C36.8813 6.9315 37.25 7.82174 37.25 8.75V33.25C37.25 34.1783 36.8813 35.0685 36.2249 35.7249C35.5685 36.3813 34.6783 36.75 33.75 36.75H9.25C8.32174 36.75 7.4315 36.3813 6.77513 35.7249C6.11875 35.0685 5.75 34.1783 5.75 33.25V8.75C5.75 7.82174 6.11875 6.9315 6.77513 6.27513C7.4315 5.61875 8.32174 5.25 9.25 5.25H33.75ZM32.875 32.375V23.1C32.875 21.5869 32.2739 20.1359 31.204 19.066C30.1341 17.9961 28.6831 17.395 27.17 17.395C25.6825 17.395 23.95 18.305 23.11 19.67V17.7275H18.2275V32.375H23.11V23.7475C23.11 22.4 24.195 21.2975 25.5425 21.2975C26.1923 21.2975 26.8154 21.5556 27.2749 22.0151C27.7344 22.4746 27.9925 23.0977 27.9925 23.7475V32.375H32.875ZM12.54 14.98C13.3197 14.98 14.0675 14.6703 14.6189 14.1189C15.1703 13.5675 15.48 12.8197 15.48 12.04C15.48 10.4125 14.1675 9.0825 12.54 9.0825C11.7556 9.0825 11.0034 9.39409 10.4487 9.94873C9.89409 10.5034 9.5825 11.2556 9.5825 12.04C9.5825 13.6675 10.9125 14.98 12.54 14.98ZM14.9725 32.375V17.7275H10.125V32.375H14.9725Z" fill="#F9F9F9"/>
</svg>
